<svg width="129" height="31" viewBox="0 0 129 31" fill="none" xmlns="http://www.w3.org/2000/svg">
<path d="M9.304 24C7.448 24 5.82667 23.648 4.44 22.944C3.07467 22.2187 2.008 21.2373 1.24 20C0.493333 18.7627 0.12 17.376 0.12 15.84C0.12 14.112 0.472 12.608 1.176 11.328C1.88 10.048 2.84 9.056 4.056 8.352C5.272 7.648 6.648 7.296 8.184 7.296C10.0187 7.296 11.5013 7.68 12.632 8.448C13.784 9.216 14.6267 10.2507 15.16 11.552C15.6933 12.832 15.96 14.2613 15.96 15.84C15.96 16.0533 15.9493 16.3093 15.928 16.608C15.9067 16.8853 15.8747 17.0987 15.832 17.248H4.792C4.96267 17.9093 5.25067 18.464 5.656 18.912C6.08267 19.36 6.60533 19.7013 7.224 19.936C7.864 20.1493 8.57867 20.256 9.368 20.256H13.912V24H9.304ZM4.76 14.304H11.576C11.5333 13.8987 11.4587 13.5253 11.352 13.184C11.2453 12.8213 11.096 12.5013 10.904 12.224C10.712 11.9467 10.488 11.712 10.232 11.52C9.976 11.328 9.67733 11.1787 9.336 11.072C8.99467 10.9653 8.62133 10.912 8.216 10.912C7.68267 10.912 7.20267 11.008 6.776 11.2C6.37067 11.392 6.02933 11.648 5.752 11.968C5.47467 12.288 5.25067 12.6507 5.08 13.056C4.93067 13.4613 4.824 13.8773 4.76 14.304ZM25.7368 24.384C24.3714 24.384 23.1448 24.1707 22.0568 23.744C20.9901 23.296 20.0941 22.6773 19.3688 21.888C18.6434 21.0773 18.0888 20.1387 17.7048 19.072C17.3208 17.984 17.1288 16.8 17.1288 15.52C17.1288 13.8987 17.4488 12.48 18.0888 11.264C18.7501 10.0267 19.6674 9.056 20.8408 8.352C22.0354 7.648 23.4221 7.296 25.0008 7.296C25.6834 7.296 26.3341 7.392 26.9528 7.584C27.5928 7.776 28.1688 8.05333 28.6808 8.416C29.1928 8.77867 29.6088 9.20533 29.9288 9.696H29.9608V0.639999H34.3448V15.52C34.3448 17.312 33.9928 18.88 33.2888 20.224C32.5848 21.5467 31.5928 22.5707 30.3128 23.296C29.0328 24.0213 27.5074 24.384 25.7368 24.384ZM25.7368 20.64C26.6114 20.64 27.3581 20.4267 27.9768 20C28.5954 19.5733 29.0648 18.9973 29.3848 18.272C29.7261 17.5467 29.8968 16.736 29.8968 15.84C29.8968 14.944 29.7261 14.1333 29.3848 13.408C29.0648 12.6827 28.5954 12.1067 27.9768 11.68C27.3581 11.2533 26.6114 11.04 25.7368 11.04C24.8834 11.04 24.1368 11.2533 23.4968 11.68C22.8781 12.1067 22.3981 12.6827 22.0568 13.408C21.7368 14.1333 21.5768 14.944 21.5768 15.84C21.5768 16.736 21.7368 17.5467 22.0568 18.272C22.3981 18.9973 22.8781 19.5733 23.4968 20C24.1368 20.4267 24.8834 20.64 25.7368 20.64ZM45.3468 24.384C43.6828 24.384 42.2534 24.0533 41.0588 23.392C39.8641 22.7307 38.9468 21.8453 38.3068 20.736C37.6881 19.6267 37.3788 18.4 37.3788 17.056V7.68H41.7628V17.056C41.7628 17.7173 41.9228 18.3253 42.2428 18.88C42.5628 19.4133 42.9894 19.84 43.5228 20.16C44.0774 20.48 44.6854 20.64 45.3468 20.64C46.0081 20.64 46.6054 20.48 47.1388 20.16C47.6934 19.84 48.1308 19.4133 48.4508 18.88C48.7708 18.3253 48.9308 17.7173 48.9308 17.056V7.68H53.3148V17.056C53.3148 18.4 52.9948 19.6267 52.3548 20.736C51.7361 21.8453 50.8294 22.7307 49.6348 23.392C48.4614 24.0533 47.0321 24.384 45.3468 24.384ZM56.5765 24V20.256H64.5445C64.8005 20.256 65.0245 20.2027 65.2165 20.096C65.4298 19.9893 65.5898 19.84 65.6965 19.648C65.8245 19.456 65.8885 19.2427 65.8885 19.008C65.8885 18.752 65.8245 18.528 65.6965 18.336C65.5898 18.144 65.4298 17.9947 65.2165 17.888C65.0245 17.76 64.8005 17.696 64.5445 17.696H61.4725C60.4272 17.696 59.4778 17.536 58.6245 17.216C57.7925 16.8747 57.1205 16.3413 56.6085 15.616C56.1178 14.8693 55.8725 13.8987 55.8725 12.704C55.8725 11.7867 56.0965 10.9547 56.5445 10.208C57.0138 9.44 57.6325 8.832 58.4005 8.384C59.1898 7.91467 60.0538 7.68 60.9925 7.68H68.6405V11.424H61.4085C61.0885 11.424 60.8005 11.5307 60.5445 11.744C60.3098 11.9573 60.1925 12.2347 60.1925 12.576C60.1925 12.9173 60.3098 13.2053 60.5445 13.44C60.7792 13.6533 61.0672 13.76 61.4085 13.76H64.4805C65.6538 13.76 66.6672 13.9413 67.5205 14.304C68.3738 14.6453 69.0352 15.1893 69.5045 15.936C69.9738 16.6827 70.2085 17.664 70.2085 18.88C70.2085 19.8187 69.9738 20.6827 69.5045 21.472C69.0352 22.24 68.4058 22.8587 67.6165 23.328C66.8272 23.776 65.9418 24 64.9605 24H56.5765ZM72.6775 24V7.68H77.0935V24H72.6775ZM74.8855 5.728C74.1388 5.728 73.4882 5.46133 72.9335 4.928C72.4002 4.37333 72.1335 3.72267 72.1335 2.976C72.1335 2.22933 72.4002 1.58933 72.9335 1.056C73.4882 0.501333 74.1388 0.223999 74.8855 0.223999C75.6322 0.223999 76.2722 0.501333 76.8055 1.056C77.3602 1.58933 77.6375 2.22933 77.6375 2.976C77.6375 3.72267 77.3602 4.37333 76.8055 4.928C76.2722 5.46133 75.6322 5.728 74.8855 5.728ZM82.7127 30.496V26.752H91.0967C91.3954 26.752 91.6407 26.6453 91.8327 26.432C92.0247 26.24 92.1207 26.0053 92.1207 25.728V21.728H92.0887C91.5981 22.2827 91.0967 22.7307 90.5847 23.072C90.0727 23.4133 89.5181 23.6693 88.9207 23.84C88.3447 23.9893 87.7047 24.064 87.0007 24.064C85.5501 24.064 84.2381 23.7227 83.0647 23.04C81.9127 22.336 80.9954 21.3547 80.3127 20.096C79.6301 18.8373 79.2887 17.376 79.2887 15.712C79.2887 14.1333 79.6194 12.7147 80.2807 11.456C80.9634 10.176 81.9447 9.16267 83.2247 8.416C84.5047 7.66933 86.0621 7.296 87.8967 7.296C89.6674 7.296 91.1927 7.65867 92.4727 8.384C93.7527 9.10933 94.7447 10.1333 95.4487 11.456C96.1527 12.7787 96.5047 14.3467 96.5047 16.16V25.856C96.5047 27.2853 96.0887 28.416 95.2567 29.248C94.4461 30.08 93.3154 30.496 91.8647 30.496H82.7127ZM87.8967 20.32C88.7714 20.32 89.5181 20.1173 90.1367 19.712C90.7554 19.3067 91.2247 18.7733 91.5447 18.112C91.8861 17.4293 92.0567 16.672 92.0567 15.84C92.0567 14.944 91.8861 14.1333 91.5447 13.408C91.2247 12.6827 90.7554 12.1067 90.1367 11.68C89.5181 11.2533 88.7714 11.04 87.8967 11.04C87.0434 11.04 86.2967 11.2533 85.6567 11.68C85.0381 12.0853 84.5581 12.64 84.2167 13.344C83.8967 14.048 83.7367 14.8373 83.7367 15.712C83.7367 16.5653 83.8967 17.344 84.2167 18.048C84.5581 18.7307 85.0381 19.2853 85.6567 19.712C86.2967 20.1173 87.0434 20.32 87.8967 20.32ZM99.5387 24V0.639999H103.923V8.832C104.605 8.27733 105.341 7.88267 106.131 7.648C106.92 7.41333 107.699 7.296 108.467 7.296C110.045 7.296 111.347 7.62667 112.371 8.288C113.416 8.94933 114.195 9.83467 114.707 10.944C115.219 12.0533 115.475 13.28 115.475 14.624V24H111.091V14.624C111.091 13.9627 110.931 13.3653 110.611 12.832C110.291 12.2773 109.853 11.84 109.299 11.52C108.765 11.2 108.168 11.04 107.507 11.04C106.867 11.04 106.269 11.2 105.715 11.52C105.181 11.8187 104.744 12.2347 104.403 12.768C104.083 13.28 103.923 13.856 103.923 14.496V24H99.5387ZM124.336 24C122.886 24 121.744 23.584 120.912 22.752C120.102 21.92 119.696 20.7893 119.696 19.36V3.584H124.08V19.232C124.08 19.5093 124.176 19.7547 124.368 19.968C124.582 20.16 124.827 20.256 125.104 20.256H128.656V24H124.336ZM116.912 11.424V7.68H128.656V11.424H116.912Z" fill="black"/>
</svg>
