<svg width="131" height="31" viewBox="0 0 131 31" fill="none" xmlns="http://www.w3.org/2000/svg">
<path d="M9.304 24C7.448 24 5.82667 23.648 4.44 22.944C3.07467 22.2187 2.008 21.2373 1.24 20C0.493333 18.7627 0.12 17.376 0.12 15.84C0.12 14.112 0.472 12.608 1.176 11.328C1.88 10.048 2.84 9.056 4.056 8.352C5.272 7.648 6.648 7.296 8.184 7.296C10.0187 7.296 11.5013 7.68 12.632 8.448C13.784 9.216 14.6267 10.2507 15.16 11.552C15.6933 12.832 15.96 14.2613 15.96 15.84C15.96 16.0533 15.9493 16.3093 15.928 16.608C15.9067 16.8853 15.8747 17.0987 15.832 17.248H4.792C4.96267 17.9093 5.25067 18.464 5.656 18.912C6.08267 19.36 6.60533 19.7013 7.224 19.936C7.864 20.1493 8.57867 20.256 9.368 20.256H13.912V24H9.304ZM4.76 14.304H11.576C11.5333 13.8987 11.4587 13.5253 11.352 13.184C11.2453 12.8213 11.096 12.5013 10.904 12.224C10.712 11.9467 10.488 11.712 10.232 11.52C9.976 11.328 9.67733 11.1787 9.336 11.072C8.99467 10.9653 8.62133 10.912 8.216 10.912C7.68267 10.912 7.20267 11.008 6.776 11.2C6.37067 11.392 6.02933 11.648 5.752 11.968C5.47467 12.288 5.25067 12.6507 5.08 13.056C4.93067 13.4613 4.824 13.8773 4.76 14.304ZM26.0568 24.384C24.6914 24.384 23.4648 24.1707 22.3768 23.744C21.3101 23.296 20.4141 22.6773 19.6888 21.888C18.9634 21.0773 18.4088 20.1387 18.0248 19.072C17.6408 17.984 17.4488 16.8 17.4488 15.52C17.4488 13.8987 17.7688 12.48 18.4088 11.264C19.0701 10.0267 19.9874 9.056 21.1608 8.352C22.3554 7.648 23.7421 7.296 25.3208 7.296C26.0034 7.296 26.6541 7.392 27.2728 7.584C27.9128 7.776 28.4888 8.05333 29.0008 8.416C29.5128 8.77867 29.9288 9.20533 30.2488 9.696H30.2808V0.639999H34.6648V15.52C34.6648 17.312 34.3128 18.88 33.6088 20.224C32.9048 21.5467 31.9128 22.5707 30.6328 23.296C29.3528 24.0213 27.8274 24.384 26.0568 24.384ZM26.0568 20.64C26.9314 20.64 27.6781 20.4267 28.2968 20C28.9154 19.5733 29.3848 18.9973 29.7048 18.272C30.0461 17.5467 30.2168 16.736 30.2168 15.84C30.2168 14.944 30.0461 14.1333 29.7048 13.408C29.3848 12.6827 28.9154 12.1067 28.2968 11.68C27.6781 11.2533 26.9314 11.04 26.0568 11.04C25.2034 11.04 24.4568 11.2533 23.8168 11.68C23.1981 12.1067 22.7181 12.6827 22.3768 13.408C22.0568 14.1333 21.8968 14.944 21.8968 15.84C21.8968 16.736 22.0568 17.5467 22.3768 18.272C22.7181 18.9973 23.1981 19.5733 23.8168 20C24.4568 20.4267 25.2034 20.64 26.0568 20.64ZM45.9868 24.384C44.3228 24.384 42.8934 24.0533 41.6988 23.392C40.5041 22.7307 39.5868 21.8453 38.9468 20.736C38.3281 19.6267 38.0188 18.4 38.0188 17.056V7.68H42.4028V17.056C42.4028 17.7173 42.5628 18.3253 42.8828 18.88C43.2028 19.4133 43.6294 19.84 44.1628 20.16C44.7174 20.48 45.3254 20.64 45.9868 20.64C46.6481 20.64 47.2454 20.48 47.7788 20.16C48.3334 19.84 48.7708 19.4133 49.0908 18.88C49.4108 18.3253 49.5708 17.7173 49.5708 17.056V7.68H53.9548V17.056C53.9548 18.4 53.6348 19.6267 52.9948 20.736C52.3761 21.8453 51.4694 22.7307 50.2748 23.392C49.1014 24.0533 47.6721 24.384 45.9868 24.384ZM57.5365 24V20.256H65.5045C65.7605 20.256 65.9845 20.2027 66.1765 20.096C66.3898 19.9893 66.5498 19.84 66.6565 19.648C66.7845 19.456 66.8485 19.2427 66.8485 19.008C66.8485 18.752 66.7845 18.528 66.6565 18.336C66.5498 18.144 66.3898 17.9947 66.1765 17.888C65.9845 17.76 65.7605 17.696 65.5045 17.696H62.4325C61.3872 17.696 60.4378 17.536 59.5845 17.216C58.7525 16.8747 58.0805 16.3413 57.5685 15.616C57.0778 14.8693 56.8325 13.8987 56.8325 12.704C56.8325 11.7867 57.0565 10.9547 57.5045 10.208C57.9738 9.44 58.5925 8.832 59.3605 8.384C60.1498 7.91467 61.0138 7.68 61.9525 7.68H69.6005V11.424H62.3685C62.0485 11.424 61.7605 11.5307 61.5045 11.744C61.2698 11.9573 61.1525 12.2347 61.1525 12.576C61.1525 12.9173 61.2698 13.2053 61.5045 13.44C61.7392 13.6533 62.0272 13.76 62.3685 13.76H65.4405C66.6138 13.76 67.6272 13.9413 68.4805 14.304C69.3338 14.6453 69.9952 15.1893 70.4645 15.936C70.9338 16.6827 71.1685 17.664 71.1685 18.88C71.1685 19.8187 70.9338 20.6827 70.4645 21.472C69.9952 22.24 69.3658 22.8587 68.5765 23.328C67.7872 23.776 66.9018 24 65.9205 24H57.5365ZM73.9575 24V7.68H78.3735V24H73.9575ZM76.1655 5.728C75.4188 5.728 74.7682 5.46133 74.2135 4.928C73.6802 4.37333 73.4135 3.72267 73.4135 2.976C73.4135 2.22933 73.6802 1.58933 74.2135 1.056C74.7682 0.501333 75.4188 0.223999 76.1655 0.223999C76.9122 0.223999 77.5522 0.501333 78.0855 1.056C78.6402 1.58933 78.9175 2.22933 78.9175 2.976C78.9175 3.72267 78.6402 4.37333 78.0855 4.928C77.5522 5.46133 76.9122 5.728 76.1655 5.728ZM84.3128 30.496V26.752H92.6968C92.9954 26.752 93.2408 26.6453 93.4328 26.432C93.6248 26.24 93.7208 26.0053 93.7208 25.728V21.728H93.6888C93.1981 22.2827 92.6968 22.7307 92.1848 23.072C91.6728 23.4133 91.1181 23.6693 90.5208 23.84C89.9448 23.9893 89.3048 24.064 88.6008 24.064C87.1501 24.064 85.8381 23.7227 84.6648 23.04C83.5128 22.336 82.5954 21.3547 81.9128 20.096C81.2301 18.8373 80.8888 17.376 80.8888 15.712C80.8888 14.1333 81.2194 12.7147 81.8808 11.456C82.5634 10.176 83.5448 9.16267 84.8248 8.416C86.1048 7.66933 87.6621 7.296 89.4968 7.296C91.2674 7.296 92.7928 7.65867 94.0728 8.384C95.3528 9.10933 96.3448 10.1333 97.0488 11.456C97.7528 12.7787 98.1048 14.3467 98.1048 16.16V25.856C98.1048 27.2853 97.6888 28.416 96.8568 29.248C96.0461 30.08 94.9154 30.496 93.4648 30.496H84.3128ZM89.4968 20.32C90.3714 20.32 91.1181 20.1173 91.7368 19.712C92.3554 19.3067 92.8248 18.7733 93.1448 18.112C93.4861 17.4293 93.6568 16.672 93.6568 15.84C93.6568 14.944 93.4861 14.1333 93.1448 13.408C92.8248 12.6827 92.3554 12.1067 91.7368 11.68C91.1181 11.2533 90.3714 11.04 89.4968 11.04C88.6434 11.04 87.8968 11.2533 87.2568 11.68C86.6381 12.0853 86.1581 12.64 85.8168 13.344C85.4968 14.048 85.3368 14.8373 85.3368 15.712C85.3368 16.5653 85.4968 17.344 85.8168 18.048C86.1581 18.7307 86.6381 19.2853 87.2568 19.712C87.8968 20.1173 88.6434 20.32 89.4968 20.32ZM101.459 24V0.639999H105.843V8.832C106.525 8.27733 107.261 7.88267 108.051 7.648C108.84 7.41333 109.619 7.296 110.387 7.296C111.965 7.296 113.267 7.62667 114.291 8.288C115.336 8.94933 116.115 9.83467 116.627 10.944C117.139 12.0533 117.395 13.28 117.395 14.624V24H113.011V14.624C113.011 13.9627 112.851 13.3653 112.531 12.832C112.211 12.2773 111.773 11.84 111.219 11.52C110.685 11.2 110.088 11.04 109.427 11.04C108.787 11.04 108.189 11.2 107.635 11.52C107.101 11.8187 106.664 12.2347 106.323 12.768C106.003 13.28 105.843 13.856 105.843 14.496V24H101.459ZM126.576 24C125.126 24 123.984 23.584 123.152 22.752C122.342 21.92 121.936 20.7893 121.936 19.36V3.584H126.32V19.232C126.32 19.5093 126.416 19.7547 126.608 19.968C126.822 20.16 127.067 20.256 127.344 20.256H130.896V24H126.576ZM119.152 11.424V7.68H130.896V11.424H119.152Z" fill="white"/>
</svg>
