<svg width="64" height="64" viewBox="0 0 64 64" fill="none" xmlns="http://www.w3.org/2000/svg">
<g clip-path="url(#clip0_61_74)">
<rect width="64" height="64" rx="5" fill="white"/>
<path d="M33.76 52C29.12 52 25.0667 51.12 21.6 49.36C18.1867 47.5467 15.52 45.0933 13.6 42C11.7333 38.9067 10.8 35.44 10.8 31.6C10.8 27.28 11.68 23.52 13.44 20.32C15.2 17.12 17.6 14.64 20.64 12.88C23.68 11.12 27.12 10.24 30.96 10.24C35.5467 10.24 39.2533 11.2 42.08 13.12C44.96 15.04 47.0667 17.6267 48.4 20.88C49.7333 24.08 50.4 27.6533 50.4 31.6C50.4 32.1333 50.3733 32.7733 50.32 33.52C50.2667 34.2133 50.1867 34.7467 50.08 35.12H22.48C22.9067 36.7733 23.6267 38.16 24.64 39.28C25.7067 40.4 27.0133 41.2533 28.56 41.84C30.16 42.3733 31.9467 42.64 33.92 42.64H45.28V52H33.76ZM22.4 27.76H39.44C39.3333 26.7467 39.1467 25.8133 38.88 24.96C38.6133 24.0533 38.24 23.2533 37.76 22.56C37.28 21.8667 36.72 21.28 36.08 20.8C35.44 20.32 34.6933 19.9467 33.84 19.68C32.9867 19.4133 32.0533 19.28 31.04 19.28C29.7067 19.28 28.5067 19.52 27.44 20C26.4267 20.48 25.5733 21.12 24.88 21.92C24.1867 22.72 23.6267 23.6267 23.2 24.64C22.8267 25.6533 22.56 26.6933 22.4 27.76Z" fill="black"/>
</g>
<defs>
<clipPath id="clip0_61_74">
<rect width="64" height="64" rx="5" fill="white"/>
</clipPath>
</defs>
</svg>
