<svg width="66" height="85" viewBox="0 0 66 85" fill="none" xmlns="http://www.w3.org/2000/svg">
<path d="M12.0001 35.5C12.0001 35.5 9.45051 34.9199 8.00014 35.5C6.46179 36.1154 5.05746 37.7548 5.00014 38.5C4.00022 51.5 4.5 65 5.00014 75C5.00003 78.7509 8.75111 81.1172 12.5001 81C28.5 80.5 41.5 80.5 55.0001 81C58.5981 81.1333 62.0001 78.6005 62.0001 75C62.0001 63.5 61.5 49.5 62.0001 38.5C62.0001 35.5 60.0003 35.5 58.5001 35.5C57 35.5 54.0001 35.5 54.0001 35.5M12.0001 35.5C12.0001 35.5 12.0001 28.5 12.0001 25C12.0001 -2.4999 54.0001 -1.99996 54.0001 25C54.0001 29.5001 54.0001 35.5 54.0001 35.5M12.0001 35.5H54.0001M30.0001 57.5C18.5 44 47 42.5 36.0001 57.5C37 60 42.5604 67.235 39.5 68C37.4999 68.5 29.4824 68.5422 26.5 68C23.5176 67.4578 29 60.5 30.0001 57.5Z" stroke="#0B2330" stroke-width="7" stroke-linecap="round"/>
</svg>
