<svg width="85" height="85" viewBox="0 0 85 85" fill="none" xmlns="http://www.w3.org/2000/svg">
<path d="M21.5773 34.9379C21.5773 34.9379 19.0277 34.3578 17.5773 34.9379C16.0389 35.5532 14.6346 37.1927 14.5773 37.9379C13.5774 50.9379 14.0771 64.4379 14.5773 74.4379C14.5772 78.1888 18.3283 80.5551 22.0773 80.4379C38.0772 79.9379 51.0772 79.9379 64.5773 80.4379C68.1753 80.5712 71.5773 78.0384 71.5773 74.4379C71.5773 62.9379 71.0772 48.9379 71.5773 37.9379C71.5773 34.9379 69.5774 34.9379 68.0773 34.9379C66.5772 34.9379 63.5773 34.9379 63.5773 34.9379M21.5773 34.9379C21.5773 34.9379 21.5773 27.9379 21.5773 24.4379C21.5773 -3.06203 63.5773 -2.5621 63.5773 24.4379C63.5773 28.938 63.5773 34.9379 63.5773 34.9379M21.5773 34.9379H63.5773M39.5773 56.9379C28.0771 43.4379 56.5771 41.9379 45.5773 56.9379C46.5771 59.4379 52.1375 66.6729 49.0771 67.4379C47.077 67.9378 39.0595 67.9801 36.0771 67.4379C33.0948 66.8956 38.5771 59.9379 39.5773 56.9379Z" stroke="#0B2330" stroke-width="7" stroke-linecap="round"/>
</svg>
