<svg width="77" height="83" viewBox="0 0 77 83" fill="none" xmlns="http://www.w3.org/2000/svg">
<g clip-path="url(#clip0_55_105)">
<path d="M48 21.5C51 17.5 53.5 17 56 13" stroke="#0B2330" stroke-width="7" stroke-linecap="round"/>
<path d="M32.2221 15C32.2226 10.4167 31.7217 9 32.2221 4" stroke="#0B2330" stroke-width="7" stroke-linecap="round"/>
<path d="M42.2049 14.2231C43.985 9.9996 44.0735 8.49959 46.4762 4.08625" stroke="#0B2330" stroke-width="7" stroke-linecap="round"/>
<path d="M53.1757 62.6671C57.3322 62.3039 62.8737 67.1062 54.5611 71.9892C53.6786 72.5076 47.772 74.0658 41.6311 75.5479M53.1757 62.6671C58.2558 62.2231 61.9501 50.6814 51.3286 51.5692M53.1757 62.6671C53.1757 62.6671 44.1694 64.8315 38.3986 66.2184M51.3286 51.5692C55.9468 49.7935 57.794 40.4713 48.096 40.4713M51.3286 51.5692C51.3286 51.5692 41.4779 53.7337 35.166 55.1206M48.096 40.4713C54.5611 39.5835 67.0299 35.1443 70.2621 34.2565C76.2658 32.4809 71.186 24.0465 66.5678 25.3782C59.1794 27.1539 25.468 36.0322 25.468 36.0322C25.468 36.0322 27.3132 23.0164 21.3119 16.9438C12.5378 8.06557 8.6217 12.5047 10.6906 19.6073C13.9234 30.7053 11.6141 31.5931 8.84339 38.2517C4.6106 48.4241 1.64616 56.5269 6.53453 66.2184C13.9236 80.8676 22.6975 79.2027 27.3152 78.6479C29.1593 78.4264 35.5115 77.0249 41.6311 75.5479M48.096 40.4713C48.096 40.4713 37.0132 44.4666 32.857 44.4666C26.8537 50.2375 31.4717 54.2327 35.166 55.1206M35.166 55.1206C31.0099 62.6671 34.2424 65.3306 38.3986 66.2184M38.3986 66.2184C35.166 68.438 34.7042 74.6528 41.6311 75.5479" stroke="#0B2330" stroke-width="7" stroke-linecap="round" stroke-linejoin="round"/>
</g>
<defs>
<clipPath id="clip0_55_105">
<rect width="77" height="83" fill="white"/>
</clipPath>
</defs>
</svg>
