<svg width="85" height="85" viewBox="0 0 85 85" fill="none" xmlns="http://www.w3.org/2000/svg">
<path d="M52 23C55.375 18.7647 58.1875 18.2353 61 14" stroke="#0B2330" stroke-width="7" stroke-linecap="round"/>
<path d="M36 16C36 11.4167 36 10 36 5" stroke="#0B2330" stroke-width="7" stroke-linecap="round"/>
<path d="M46.3126 15.2231C48.1443 10.9996 48.2354 9.49959 50.7077 5.08625" stroke="#0B2330" stroke-width="7" stroke-linecap="round"/>
<path d="M57.6011 63.6671C61.878 63.3039 67.5802 68.1062 59.0267 72.9892C58.1186 73.5076 52.0407 75.0658 45.7219 76.5479M57.6011 63.6671C62.8284 63.2231 66.6299 51.6814 55.7004 52.5692M57.6011 63.6671C57.6011 63.6671 48.3337 65.8315 42.3956 67.2184M55.7004 52.5692C60.4525 50.7935 62.3532 41.4713 52.3741 41.4713M55.7004 52.5692C55.7004 52.5692 45.5642 54.7337 39.0694 56.1206M52.3741 41.4713C59.0267 40.5835 71.8568 36.1443 75.1828 35.2565C81.3604 33.4809 76.1335 25.0465 71.3813 26.3782C63.7788 28.1539 29.0903 37.0322 29.0903 37.0322C29.0903 37.0322 30.9889 24.0164 24.8136 17.9438C15.7853 9.06557 11.7557 13.5047 13.8845 20.6073C17.2111 31.7053 14.8348 32.5931 11.9838 39.2517C7.6283 49.4241 4.57793 57.5269 9.60799 67.2184C17.2112 81.8676 26.2395 80.2027 30.991 79.6479C32.8886 79.4264 39.4249 78.0249 45.7219 76.5479M52.3741 41.4713C52.3741 41.4713 40.9701 45.4666 36.6935 45.4666C30.5161 51.2375 35.2679 55.2327 39.0694 56.1206M39.0694 56.1206C34.7928 63.6671 38.119 66.3306 42.3956 67.2184M42.3956 67.2184C39.0694 69.438 38.5942 75.6528 45.7219 76.5479" stroke="#0B2330" stroke-width="7" stroke-linecap="round" stroke-linejoin="round"/>
</svg>
