<svg width="121" height="145" viewBox="0 0 121 145" fill="none" xmlns="http://www.w3.org/2000/svg">
<path d="M4 93.284C21.5711 93.284 39.1429 67.8025 39.1429 54C39.1429 75.2346 44.7143 92.1412 70 92.1412C52.8571 92.1412 35.5283 114.872 35.5283 140C35.5283 123.012 33.1429 93.284 4 93.284Z" stroke="#0B2330" stroke-width="7" stroke-linecap="round" stroke-linejoin="round"/>
<path d="M49 20.6854C59 20.6854 64.188 7 64.1875 4C64.1875 8.49998 66.4999 21 77.5 21C69.4999 21 64.1875 30 64.1875 37C64.1875 31.5 64.1875 20.6854 49 20.6854Z" stroke="#0B2330" stroke-width="7" stroke-linecap="round" stroke-linejoin="round"/>
<path d="M74 57.369C87.9997 57.369 97.7374 40.5 97.7374 20C97.7374 34 102 53 116.5 53C106 53 92.9899 80.5 92.9899 93C92.9896 74.5 91.5 57.369 74 57.369Z" stroke="#0B2330" stroke-width="7" stroke-linecap="round" stroke-linejoin="round"/>
</svg>
