<svg width="437" height="184" viewBox="0 0 437 184" fill="none" xmlns="http://www.w3.org/2000/svg">
<path d="M403.066 160C433.276 160 444.262 118.625 403.066 107.591C403.066 59.78 357.598 53.0373 336.848 62.5383C316.097 72.0393 345.494 86.5462 348.749 65.9096C352.004 45.2731 337.109 3.99995 274.596 4C223.941 4.00004 184.576 72.3458 212.65 74.1847C220.524 74.7004 226.992 55.7957 204.106 55.7957C185.186 55.7957 163.878 86.1375 165.046 110.043C165.974 129.045 181.829 160 217.227 160C252.625 160 254.293 155.29 310.147 160C366 164.71 372.855 160 403.066 160Z" stroke="#0B2330" stroke-width="7" stroke-linecap="round" stroke-linejoin="round"/>
<path d="M284.366 176C333.5 172 359 180.5 388.856 176C412.5 172.436 406 119.147 365.5 119.147C370.5 104.147 351.771 85 316.622 85C288.14 85 271.512 111.933 274 119.147C264.013 120.433 254.369 132.914 255.026 146.859C255.548 157.943 264.463 176 284.366 176Z" stroke="#0B2330" stroke-width="7" stroke-linecap="round" stroke-linejoin="round"/>
<path d="M183.259 4L112.259 19L129 29.3403M183.259 4L129 29.3403M183.259 4L156.259 53.5L142.759 41.5M129 29.3403L129.259 29.5L142.759 41.5M129 29.3403L129.759 53L142.759 41.5" stroke="#0B2330" stroke-width="7" stroke-linecap="round" stroke-linejoin="round"/>
<path d="M14.1805 177C66.2246 128.315 33.106 116.227 18.9118 119.238C-1.90578 123.653 -0.012943 140.28 18.9118 134.916C37.9026 129.534 58.6546 119.238 58.6546 106.86C58.6546 94.4825 38.7832 89.1189 38.7832 89.1189C12.288 80.8671 14.1805 95.7203 31.2131 102.322C44.623 107.519 76.4757 105.76 81.3647 91.1818C84.1321 82.9301 81.3647 68.6686 70.0096 66.4266C44.9339 61.4755 51.165 80.6536 62.9127 82.9301C79.9454 86.2308 108.333 71.3776 123 59" stroke="#0B2330" stroke-width="7" stroke-linecap="round" stroke-linejoin="round" stroke-dasharray="10 10"/>
</svg>
