<svg width="428" height="314" viewBox="0 0 428 314" fill="none" xmlns="http://www.w3.org/2000/svg">
<g clip-path="url(#clip0_64_71)">
<ellipse cx="388.5" cy="159.5" rx="13.5" ry="11.5" fill="#F2D15D"/>
<path d="M82.3895 31.2569C73.9904 40.4931 97.305 91.3867 109.736 91.3867M82.3895 31.2569C92.2853 32.2412 115.702 83.3694 109.736 91.3867M82.3895 31.2569C80.5967 31.8592 78.5438 32.5488 76.4619 33.2481M109.736 91.3867L86.5341 103.914M76.4619 33.2481C74.1173 34.0358 15.8029 53.6256 14.0366 54.219M76.4619 33.2481C57.5286 -8.82978 -2.13753 18.73 14.0366 54.219M14.0366 54.219C10.1325 55.5305 7.80919 56.311 7.80919 56.311C-4.6226 91.3867 15.2681 118.946 40.1283 128.968L50.0703 123.6M86.5341 103.914C132.94 121.953 149.514 129.803 152 131.473M86.5341 103.914L50.0703 123.6M50.0703 123.6C101.781 129.898 136.255 139.824 147.028 144" stroke="#0B2330" stroke-width="7" stroke-linecap="round" stroke-linejoin="round"/>
<path d="M175.539 119.575C156.139 114.189 136.86 159.313 153.427 166.805M175.539 119.575C179.754 125.245 171.509 167.452 153.427 166.805M175.539 119.575C170.598 118.846 153.624 155.773 153.427 166.805" stroke="#0B2330" stroke-width="7" stroke-linecap="round" stroke-linejoin="round"/>
<path d="M183.5 131C201 131 231 143.708 241 153.875M183.5 146.25C201 151.333 214.333 158.958 216 161.5M176 156.417C206 170.65 218.5 186.069 221 192" stroke="#0B2330" stroke-width="7" stroke-linecap="round" stroke-linejoin="round"/>
<path d="M172 164C183.2 177.785 186 191.077 186 196" stroke="#0B2330" stroke-width="7" stroke-linecap="round" stroke-linejoin="round"/>
<path d="M148.5 310.5C193 310.5 236.541 295.885 278.345 294.46M418.5 310.5C392.5 310.5 380.908 304.746 356.5 300.238M278.345 294.46C277.61 288.102 277.285 282.318 277.205 276.939M278.345 294.46C307.194 293.477 333.809 296.046 356.5 300.238M274 206.853C276.5 179.319 239 181.822 239 181.822C239 181.822 249 201.846 274 206.853ZM274 206.853C282.307 233.882 276.813 250.549 277.205 276.939M277.205 276.939C284.641 250.907 289 249.405 289 249.405M289 249.405C301 229.38 315.667 227.711 321.5 229.38C315.5 247.402 297.333 250.239 289 249.405ZM356.5 300.238C354.266 280.884 353.031 226.716 353.015 171.81M359 29.1343C361 7.1073 383.167 3.26926 394 4.10362C380 30.1353 364.833 31.6373 359 29.1343ZM359 29.1343C357.068 31.7131 355.634 48.0738 354.655 71.6863M353.015 171.81C369.803 143.775 380.667 136.766 384 136.766M353.015 171.81C353.01 150.389 353.189 128.855 353.568 109.233M384 136.766C378 120.747 386.5 108.398 391.5 104.227C393.5 124.251 387.333 134.263 384 136.766ZM384 136.766C404 119.245 419 129.257 424 139.27C406 133.262 394 139.27 384 136.766ZM384 136.766C388 142.774 387.206 139.594 386.5 146.779M386.5 146.779C409 146.779 409 171.81 389 171.81C369 171.81 371.5 146.779 386.5 146.779ZM353.568 109.233C345.914 93.213 339 90.8768 336.5 91.7112M353.568 109.233C353.675 103.693 353.798 98.3047 353.937 93.1148M336.5 91.7112C318.5 77.694 305.667 87.5394 301.5 94.2143C317.5 90.2093 331.5 90.8768 336.5 91.7112ZM353.937 93.1148C367.987 65.9599 374.833 62.5087 376.5 64.1774M353.937 93.1148C354.141 85.4978 354.38 78.307 354.655 71.6863M376.5 64.1774C380.5 46.1552 399.833 41.6497 409 41.6497C397 59.6718 382.333 64.1774 376.5 64.1774ZM354.655 71.6863C348.131 57.669 343.167 55.8335 341.5 56.6678M341.5 56.6678C325.5 40.6481 314.833 36.6432 311.5 36.6432C311.5 56.6678 331.5 58.3365 341.5 56.6678Z" stroke="#0B2330" stroke-width="7" stroke-linecap="round" stroke-linejoin="round"/>
<path d="M276 252C264 231.609 255.167 231.609 251 234.158C263 248.432 271.833 252 276 252Z" stroke="#0B2330" stroke-width="7" stroke-linecap="round" stroke-linejoin="round"/>
<path d="M203.738 304C207.712 280.209 201.254 274.261 198.771 274.261M198.771 274.261C208.705 262.365 196.287 251.13 188.836 247C190.823 266.826 196.287 273.435 198.771 274.261ZM198.771 274.261C180.889 262.365 167.311 271.783 164 276.739C178.902 274.261 188.836 279.217 198.771 274.261Z" stroke="#0B2330" stroke-width="7" stroke-linecap="round" stroke-linejoin="round"/>
</g>
<defs>
<clipPath id="clip0_64_71">
<rect width="428" height="314" fill="white"/>
</clipPath>
</defs>
</svg>
